<?xml version="1.0" encoding="UTF-8" standalone="no"?>
<!-- Created with Inkscape (http://www.inkscape.org/) -->

<svg
   xmlns:dc="http://purl.org/dc/elements/1.1/"
   xmlns:cc="http://creativecommons.org/ns#"
   xmlns:rdf="http://www.w3.org/1999/02/22-rdf-syntax-ns#"
   xmlns:svg="http://www.w3.org/2000/svg"
   xmlns="http://www.w3.org/2000/svg"
   xmlns:sodipodi="http://sodipodi.sourceforge.net/DTD/sodipodi-0.dtd"
   xmlns:inkscape="http://www.inkscape.org/namespaces/inkscape"
   version="1.1"
   id="svg2"
   width="30"
   height="30"
   viewBox="0 0 30 30"
   sodipodi:docname="final_compute2.svg"
   inkscape:version="0.92.2 5c3e80d, 2017-08-06"
   inkscape:export-filename="/home/julio/Projects/simcav/Icons/final_compute2.png"
   inkscape:export-xdpi="96"
   inkscape:export-ydpi="96">
  <metadata
     id="metadata8">
    <rdf:RDF>
      <cc:Work
         rdf:about="">
        <dc:format>image/svg+xml</dc:format>
        <dc:type
           rdf:resource="http://purl.org/dc/dcmitype/StillImage" />
        <dc:title></dc:title>
      </cc:Work>
    </rdf:RDF>
  </metadata>
  <defs
     id="defs6" />
  <sodipodi:namedview
     pagecolor="#ffffff"
     bordercolor="#666666"
     borderopacity="1"
     objecttolerance="10"
     gridtolerance="10"
     guidetolerance="10"
     inkscape:pageopacity="0"
     inkscape:pageshadow="2"
     inkscape:window-width="1920"
     inkscape:window-height="1016"
     id="namedview4"
     showgrid="false"
     inkscape:zoom="11.125147"
     inkscape:cx="10.186152"
     inkscape:cy="13.637667"
     inkscape:window-x="0"
     inkscape:window-y="0"
     inkscape:window-maximized="1"
     inkscape:current-layer="svg2" />
  <path
     id="path844"
     d="m 20.358317,-16.341143 -0.219478,-0.81138 c -0.246249,0.04813 -0.495003,0.08242 -0.745092,0.102692 l 0.002,0.837697 -1.004969,0.0024 -0.002,-0.843792 c -0.249822,-0.01829 -0.498423,-0.05051 -0.744642,-0.09654 l -0.216542,0.81585 -0.971301,-0.257775 0.214739,-0.809261 c -0.236646,-0.08342 -0.468434,-0.180027 -0.694274,-0.289371 l -0.418645,0.729116 -0.871499,-0.500399 0.420271,-0.731946 c -0.207592,-0.140271 -0.407176,-0.292041 -0.597817,-0.454602 l -0.594352,0.597186 -0.712272,-0.708902 0.595146,-0.597967 c -0.163408,-0.189802 -0.316071,-0.3886 -0.457281,-0.595455 l -0.730943,0.424293 -0.504555,-0.869065 0.726965,-0.422023 c -0.108966,-0.222617 -0.205514,-0.451097 -0.28923,-0.684384 l -0.0027,-0.0088 -0.808744,0.218766 -0.262399,-0.970046 0.813667,-0.220098 c -0.04807,-0.246056 -0.08234,-0.494602 -0.102612,-0.744487 l -0.84014,0.002 -0.0024,-1.004971 0.846179,-0.002 c 0.01824,-0.249613 0.05042,-0.498012 0.09639,-0.744035 l -0.818086,-0.217133 0.257775,-0.971302 0.81138,0.215363 c 0.0833,-0.236516 0.179771,-0.468181 0.288965,-0.693913 l -0.730829,-0.419627 0.500399,-0.8715 0.733435,0.421125 c 0.140143,-0.207543 0.291777,-0.40709 0.454192,-0.597707 l -0.598206,-0.595332 0.708901,-0.712272 0.598749,0.595941 c 0.189679,-0.163422 0.388343,-0.316112 0.595064,-0.45736 l -0.424735,-0.73164 0.869125,-0.504573 0.422266,0.727403 c 0.22259,-0.109049 0.451039,-0.205712 0.684307,-0.289522 l 0.0085,-0.0031 -0.218735,-0.808626 0.970047,-0.262399 0.22013,0.813784 c 0.246053,-0.04813 0.494606,-0.08246 0.7445,-0.102787 l -0.002,-0.840082 1.004912,-0.0024 0.002,0.845294 c 0.249723,0.0182 0.498234,0.05031 0.744371,0.09624 l 0.216843,-0.817065 0.971301,0.257776 -0.214836,0.8096 c 0.236653,0.08331 0.468451,0.179813 0.694311,0.289049 l 0.418647,-0.729118 0.871497,0.500399 -0.420226,0.731871 c 0.207695,0.140193 0.407388,0.291893 0.598136,0.45439 l 0.594005,-0.59684 0.712272,0.708901 -0.594148,0.597007 c 0.16357,0.189837 0.316392,0.388676 0.457752,0.595585 l 0.729455,-0.423513 0.504571,0.869124 -0.725435,0.421169 c 0.110264,0.224838 0.207886,0.455661 0.292383,0.691394 l 6.01e-4,0.002 0.806282,-0.218101 0.262398,0.970046 -0.81132,0.219463 c 0.0482,0.246267 0.08257,0.495044 0.10296,0.745154 l 0.837445,-0.002 0.0024,1.004912 -0.842851,0.002 c -0.01823,0.249916 -0.05043,0.498618 -0.09645,0.744938 l 0.81483,0.216252 -0.257774,0.9713 -0.807648,-0.214357 c -0.08343,0.236821 -0.180043,0.468782 -0.289422,0.694789 l 0.727464,0.417722 -0.500397,0.8715 -0.730384,-0.419373 c -0.140232,0.20781 -0.29204,0.407571 -0.454653,0.598383 l 0.59569,0.592952 -0.708901,0.712271 -0.596316,-0.593454 c -0.189948,0.163554 -0.388894,0.316363 -0.595913,0.457701 l 0.423089,0.728816 -0.869066,0.504556 -0.420834,-0.724899 c -0.223475,0.109453 -0.452858,0.2064 -0.687088,0.290402 l -0.0066,0.0021 0.218084,0.806222 z m -0.693536,-1.592582 -1.112778,-4.11376 a 1.7323671,1.7323671 0 0 1 -0.98153,-0.564169 l -4.111707,1.112223 a 5.8730741,5.8730741 0 0 0 6.206015,3.565706 z m 1.459619,-0.395151 a 5.8730741,5.8730741 0 0 0 3.565455,-6.208581 l -4.112998,1.112571 a 1.7323671,1.7323671 0 0 1 -0.564677,0.984309 z m -8.060779,-4.630177 4.11376,-1.112778 a 1.7323671,1.7323671 0 0 1 0.562026,-0.979691 l -1.11243,-4.11247 a 5.8730741,5.8730741 0 0 0 -3.563356,6.204939 z m 7.117856,-1.92539 4.112528,-1.112445 a 5.8730741,5.8730741 0 0 0 -6.207645,-3.563128 l 1.112588,4.113056 a 1.7323671,1.7323671 0 0 1 0.982529,0.562517 z"
     style="opacity:1;fill:#004b00;fill-opacity:1;fill-rule:nonzero;stroke:#000000;stroke-width:0.02143045;stroke-linecap:round;stroke-linejoin:bevel;stroke-miterlimit:4;stroke-dasharray:none;stroke-opacity:1;paint-order:markers fill stroke"
     inkscape:connector-curvature="0" />
  <path
     inkscape:connector-curvature="0"
     style="opacity:1;fill:#000000;fill-opacity:1;fill-rule:nonzero;stroke:#000000;stroke-width:0.02535811;stroke-linecap:round;stroke-linejoin:round;stroke-miterlimit:4;stroke-dasharray:none;stroke-opacity:1;paint-order:markers fill stroke"
     d="M 5.6919302,-3.755093 5.8251191,-4.726552 C 5.5386906,-4.786822 5.255868,-4.863109 4.9779714,-4.955017 L 4.5991551,-4.054198 3.5184553,-4.508653 3.9000299,-5.416029 C 3.6399637,-5.549269 3.3875519,-5.696941 3.1439765,-5.858362 L 2.5403448,-5.080381 1.6141171,-5.798998 2.212815,-6.57072 C 1.9965242,-6.767948 1.7914521,-6.977138 1.5985609,-7.197305 l -0.7813045,0.5929 -0.708681,-0.933879 0.784337,-0.5952 C 0.7336879,-8.378576 0.5882968,-8.632379 0.4574176,-8.893709 l -0.9100683,0.371267 -0.4428103,-1.085461 0.9112774,-0.371746 c -0.0892276,-0.278215 -0.1628279,-0.561204 -0.2204614,-0.847638 l -0.9781837,0.123417 -0.1468302,-1.163064 0.9728779,-0.122787 c -0.015822,-0.288704 -0.015647,-0.578063 5.078e-4,-0.866749 l 0.00103,-0.01072 -0.9682998,-0.132755 0.159234,-1.161427 0.9741956,0.133564 c 0.060252,-0.286191 0.1364635,-0.568784 0.2282981,-0.846456 l -0.9034589,-0.379893 0.4544547,-1.080699 0.9099467,0.382641 c 0.1331104,-0.259856 0.2806424,-0.512072 0.4418951,-0.75547 l -0.7801139,-0.605282 0.718617,-0.926228 0.7737141,0.60033 c 0.1970404,-0.216203 0.4060284,-0.421209 0.625984,-0.614051 l -0.594291,-0.783139 0.9338792,-0.708681 0.5964104,0.785932 c 0.2449314,-0.159229 0.4985721,-0.304645 0.7597332,-0.435562 l -0.371916,-0.911587 1.0854617,-0.44281 0.3722225,0.912486 c 0.2780836,-0.0893 0.5609396,-0.162994 0.8472473,-0.220728 L 5.7844,-21.03614 l 1.163135,-0.146822 0.1228503,0.973459 c 0.2887138,-0.01593 0.5780866,-0.01593 0.8667952,1.59e-4 l 0.010566,6.04e-4 0.1327365,-0.96816 1.161428,0.159234 -0.133584,0.974336 c 0.286219,0.06019 0.568846,0.13633 0.846556,0.228098 l 0.379883,-0.90339 1.080629,0.454446 -0.382226,0.909003 c 0.260003,0.133099 0.512362,0.28062 0.755901,0.441882 l 0.604507,-0.779147 0.926227,0.718616 -0.598956,0.772044 c 0.216345,0.197118 0.421479,0.406195 0.614442,0.626253 l 0.781305,-0.5929 0.70868,0.93388 -0.784257,0.595139 c 0.159372,0.245054 0.304912,0.498832 0.435936,0.760142 l 0.909539,-0.371053 0.44281,1.085461 -0.909768,0.371166 c 0.08939,0.27832 0.163146,0.561426 0.220914,0.847986 l 0.976224,-0.123257 0.146821,1.163135 -0.970845,0.122564 c 0.01621,0.291681 0.01613,0.584043 -3.03e-4,0.875712 l -2.53e-4,0.0024 0.965352,0.132352 -0.159233,1.161425 -0.971387,-0.133179 c -0.06021,0.286467 -0.136425,0.569349 -0.228278,0.847305 l 0.900548,0.378708 -0.454446,1.080629 -0.906361,-0.381149 c -0.133227,0.260193 -0.280919,0.512724 -0.442368,0.756412 l 0.777014,0.602855 -0.718616,0.926228 -0.770163,-0.597554 c -0.197307,0.216479 -0.406592,0.42173 -0.62687,0.614786 l 0.591626,0.779629 -0.933879,0.708681 -0.593928,-0.782662 c -0.245195,0.159415 -0.49912,0.304981 -0.760583,0.436018 l 0.370353,0.90787 -1.085461,0.44281 -0.370739,-0.908709 c -0.278434,0.08932 -0.561647,0.163016 -0.848316,0.220711 l 0.12309,0.975351 -1.1630652,0.14683 -0.1224508,-0.970116 c -0.2898469,0.01596 -0.5803556,0.0158 -0.8701832,-4.77e-4 l -0.00807,-7.42e-4 -0.1323421,0.965282 z M 5.6710962,-5.781357 6.3463733,-10.70672 A 2.0209176,2.0209176 0 0 1 5.5484886,-11.759143 L 0.625582,-12.434084 a 6.8513183,6.8513183 0 0 0 5.0455142,6.652727 z m 1.7477343,0.239252 a 6.8513183,6.8513183 0 0 0 6.6536215,-5.048386 l -4.924451,-0.675151 a 2.0209176,2.0209176 0 0 1 -1.054232,0.800638 z m -6.5539881,-8.639711 4.9253636,0.675277 a 2.0209176,2.0209176 0 0 1 1.0492827,-0.796884 l 0.6750654,-4.92382 a 6.8513183,6.8513183 0 0 0 -6.6497117,5.045427 z m 8.5221376,1.168403 4.923889,0.675074 a 6.8513183,6.8513183 0 0 0 -5.048437,-6.650697 l -0.675163,4.924522 a 2.0209176,2.0209176 0 0 1 0.799711,1.051101 z"
     id="path861" />
  <path
     style="opacity:1;fill:#feffff;fill-opacity:1;fill-rule:nonzero;stroke:#000000;stroke-width:0.02535811;stroke-linecap:round;stroke-linejoin:round;stroke-miterlimit:4;stroke-dasharray:none;stroke-opacity:1;paint-order:markers fill stroke"
     id="path872"
     sodipodi:type="arc"
     sodipodi:cx="7.6842012"
     sodipodi:cy="12.252218"
     sodipodi:rx="1.2035234"
     sodipodi:ry="1.2035234"
     sodipodi:start="1.6471824"
     sodipodi:end="1.6457861"
     sodipodi:open="true"
     d="M 7.5923582,13.452232 A 1.2035234,1.2035234 0 0 1 6.4841553,12.160794 1.2035234,1.2035234 0 0 1 7.7752065,11.05214 1.2035234,1.2035234 0 0 1 8.8843107,12.342805 1.2035234,1.2035234 0 0 1 7.5940339,13.452359"
     transform="matrix(0.99984662,-0.01751402,-0.01751402,-0.99984662,0,0)" />
  <path
     d="m 18.797709,24.832922 a 1.031682,1.031682 0 0 1 -0.949972,-1.107044 1.031682,1.031682 0 0 1 1.106712,-0.950358 1.031682,1.031682 0 0 1 0.950745,1.106381 1.031682,1.031682 0 0 1 -1.106049,0.95113"
     sodipodi:open="true"
     sodipodi:end="1.6457861"
     sodipodi:start="1.6471824"
     sodipodi:ry="1.031682"
     sodipodi:rx="1.031682"
     sodipodi:cy="23.804249"
     sodipodi:cx="18.876438"
     sodipodi:type="arc"
     id="path846"
     style="opacity:1;fill:#ffffff;fill-opacity:1;fill-rule:nonzero;stroke:#000000;stroke-width:0.02173743;stroke-linecap:round;stroke-linejoin:round;stroke-miterlimit:4;stroke-dasharray:none;stroke-opacity:1;paint-order:markers fill stroke"
     transform="scale(1,-1)" />
  <path
     style="opacity:1;fill:none;fill-opacity:1;fill-rule:nonzero;stroke:#000000;stroke-width:0.03454657;stroke-linecap:round;stroke-linejoin:round;stroke-miterlimit:4;stroke-dasharray:none;stroke-opacity:1;paint-order:markers fill stroke"
     id="path931"
     sodipodi:type="arc"
     sodipodi:cx="15.754905"
     sodipodi:cy="46.919132"
     sodipodi:rx="9.771246"
     sodipodi:ry="9.771246"
     sodipodi:start="1.6471824"
     sodipodi:end="1.6457861"
     sodipodi:open="true"
     d="M 15.009243,56.661885 A 9.771246,9.771246 0 0 1 6.011892,46.176872 9.771246,9.771246 0 0 1 16.493764,37.175861 9.771246,9.771246 0 0 1 25.498433,47.65459 9.771246,9.771246 0 0 1 15.022848,56.662917" />
  <rect
     y="-60.802193"
     x="-18.368826"
     height="27.761459"
     width="5.2324967"
     id="rect937"
     style="opacity:1;fill:none;fill-opacity:1;fill-rule:nonzero;stroke:#000000;stroke-width:0.06738932;stroke-linecap:round;stroke-linejoin:bevel;stroke-miterlimit:4;stroke-dasharray:none;stroke-opacity:1;paint-order:markers fill stroke"
     transform="scale(-1)" />
  <path
     style="opacity:1;fill:#000000;fill-opacity:1;fill-rule:nonzero;stroke:#000000;stroke-width:0.02402836;stroke-linecap:round;stroke-linejoin:round;stroke-miterlimit:4;stroke-dasharray:none;stroke-opacity:1;paint-order:markers fill stroke"
     d="m -23.674534,1.097483 v 1.658989 a 6.7859376,6.7859376 0 0 0 -2.713749,1.123983 l -1.17326,-1.17326 -1.664856,1.664856 1.17678,1.176779 a 6.7859376,6.7859376 0 0 0 -1.128676,2.709057 h -1.657816 v 2.354732 h 1.662509 a 6.7859376,6.7859376 0 0 0 1.12281,2.711403 l -1.175607,1.175607 1.664856,1.664855 1.177953,-1.177953 a 6.7859376,6.7859376 0 0 0 2.709056,1.129849 v 1.657816 h 2.354732 v -1.662509 a 6.7859376,6.7859376 0 0 0 2.712577,-1.120463 l 1.17326,1.17326 1.664855,-1.664855 -1.175606,-1.175607 a 6.7859376,6.7859376 0 0 0 1.132196,-2.711403 h 1.653122 V 8.257887 h -1.658988 a 6.7859376,6.7859376 0 0 0 -1.12281,-2.71375 l 1.172086,-1.172086 -1.664855,-1.664856 -1.174433,1.174433 A 6.7859376,6.7859376 0 0 0 -21.319802,2.751779 V 1.097483 Z m 2.344173,3.837732 a 4.6509624,4.6509624 0 0 1 3.325019,3.312112 l -3.31798,0.0082 z m -2.354732,0.0082 0.007,3.317979 -3.317979,0.007 a 4.6509624,4.6509624 0 0 1 3.310939,-3.325016 z m 5.68679,5.658633 a 4.6509624,4.6509624 0 0 1 -3.310939,3.323846 l -0.0082,-3.315633 z m -5.673884,0.01408 0.0082,3.316805 a 4.6509624,4.6509624 0 0 1 -3.322669,-3.309764 z"
     id="path985"
     inkscape:connector-curvature="0" />
  <path
     d="m -22.600921,10.592453 a 1.1849129,1.1849129 0 0 1 -1.091066,-1.2714679 1.1849129,1.1849129 0 0 1 1.271087,-1.0915102 1.1849129,1.1849129 0 0 1 1.091954,1.2707061 1.1849129,1.1849129 0 0 1 -1.270325,1.092397"
     sodipodi:open="true"
     sodipodi:end="1.6457861"
     sodipodi:start="1.6471824"
     sodipodi:ry="1.1849129"
     sodipodi:rx="1.1849129"
     sodipodi:cy="9.4109955"
     sodipodi:cx="-22.510498"
     sodipodi:type="arc"
     id="path989"
     style="opacity:1;fill:#ffffff;fill-opacity:1;fill-rule:nonzero;stroke:#000000;stroke-width:0.02616222;stroke-linecap:round;stroke-linejoin:round;stroke-miterlimit:4;stroke-dasharray:none;stroke-opacity:1;paint-order:markers fill stroke" />
  <path
     inkscape:connector-curvature="0"
     id="path996"
     d="m -8.985437,12.591612 -0.670219,1.539859 a 6.869398,6.869398 0 0 0 -2.972958,-0.05307 l -0.615023,-1.562998 -2.217893,0.872718 0.616866,1.567686 a 6.869398,6.869398 0 0 0 -2.142064,2.058551 l -1.53877,-0.669744 -0.951293,2.185642 1.543126,0.67164 a 6.869398,6.869398 0 0 0 -0.05321,2.970308 l -1.566124,0.616254 0.872717,2.217892 1.56925,-0.617483 a 6.869398,6.869398 0 0 0 2.058073,2.143154 l -0.669745,1.538771 2.185644,0.951293 0.67164,-1.543127 a 6.869398,6.869398 0 0 0 2.970449,0.05586 l 0.615022,1.562996 2.217893,-0.872716 -0.616253,-1.566124 a 6.869398,6.869398 0 0 0 2.146281,-2.059304 l 1.534414,0.667848 0.951293,-2.185642 -1.53986,-0.670218 a 6.869398,6.869398 0 0 0 0.05414,-2.972486 l 1.561434,-0.614408 -0.872715,-2.217893 -1.56456,0.615637 a 6.869398,6.869398 0 0 0 -2.060253,-2.144102 l 0.668323,-1.535503 z m 0.625429,4.509178 a 4.7081647,4.7081647 0 0 1 1.748188,4.417556 l -3.083023,-1.33285 z m -2.188945,-0.943706 -1.333871,3.082578 -3.082579,-1.333872 a 4.7081647,4.7081647 0 0 1 4.41647,-1.748655 z m 2.992389,7.549714 a 4.7081647,4.7081647 0 0 1 -4.415993,1.747573 l 1.331902,-3.080845 z m -5.272141,-2.279134 -1.332374,3.081932 a 4.7081647,4.7081647 0 0 1 -1.746972,-4.414394 z"
     style="opacity:1;fill:#004700;fill-opacity:1;fill-rule:nonzero;stroke:#000000;stroke-width:0.02432388;stroke-linecap:round;stroke-linejoin:round;stroke-miterlimit:4;stroke-dasharray:none;stroke-opacity:1;paint-order:markers fill stroke" />
  <path
     style="opacity:1;fill:#ffffff;fill-opacity:1;fill-rule:nonzero;stroke:#000000;stroke-width:0.02432388;stroke-linecap:round;stroke-linejoin:round;stroke-miterlimit:4;stroke-dasharray:none;stroke-opacity:1;paint-order:markers fill stroke"
     id="path998"
     sodipodi:type="arc"
     sodipodi:cx="-3.1193657"
     sodipodi:cy="23.448944"
     sodipodi:rx="1.1016527"
     sodipodi:ry="1.1016527"
     sodipodi:start="1.6471824"
     sodipodi:end="1.6457861"
     sodipodi:open="true"
     d="m -3.2034348,24.547384 a 1.1016527,1.1016527 0 0 1 -1.0144005,-1.182126 1.1016527,1.1016527 0 0 1 1.1817718,-1.014813 1.1016527,1.1016527 0 0 1 1.0152256,1.181418 1.1016527,1.1016527 0 0 1 -1.1810631,1.015638"
     transform="rotate(20.826482)" />
  <rect
     transform="rotate(-120)"
     style="opacity:1;fill:none;fill-opacity:1;fill-rule:nonzero;stroke:#000000;stroke-width:0.06738932;stroke-linecap:round;stroke-linejoin:bevel;stroke-miterlimit:4;stroke-dasharray:none;stroke-opacity:1;paint-order:markers fill stroke"
     id="rect1000"
     width="5.2324967"
     height="27.761459"
     x="-51.127716"
     y="-23.699329" />
  <rect
     y="23.222134"
     x="-35.375137"
     height="27.761459"
     width="5.2324967"
     id="rect1002"
     style="opacity:1;fill:none;fill-opacity:1;fill-rule:nonzero;stroke:#000000;stroke-width:0.06738932;stroke-linecap:round;stroke-linejoin:bevel;stroke-miterlimit:4;stroke-dasharray:none;stroke-opacity:1;paint-order:markers fill stroke"
     transform="rotate(-60)" />
  <path
     style="opacity:1;fill:none;fill-opacity:1;fill-rule:nonzero;stroke:#000000;stroke-width:0.03454657;stroke-linecap:round;stroke-linejoin:round;stroke-miterlimit:4;stroke-dasharray:none;stroke-opacity:1;paint-order:markers fill stroke"
     d="m 44.596978,1.4903424 v 4.4726563 a 9.771246,9.771246 0 0 0 -4.222656,2.4394531 l -3.875,-2.2382812 -2.615235,4.5312504 3.876954,2.238281 a 9.771246,9.771246 0 0 0 -0.289063,1.693359 9.771246,9.771246 0 0 0 0.292969,3.177735 l -3.88086,2.240234 2.615235,4.53125 3.871094,-2.234375 a 9.771246,9.771246 0 0 0 4.226562,2.439453 v 4.470703 H 49.8294 v -4.478515 a 9.771246,9.771246 0 0 0 4.220703,-2.433594 l 3.875,2.236328 2.617187,-4.53125 -3.875,-2.236328 a 9.771246,9.771246 0 0 0 0.291016,-1.705078 9.771246,9.771246 0 0 0 -0.292969,-3.169922 L 60.54229,10.695421 57.925103,6.1641706 54.059868,8.3946393 A 9.771246,9.771246 0 0 0 49.8294,5.9571393 V 1.4903424 Z"
     id="path1004"
     inkscape:connector-curvature="0" />
  <path
     d="m 46.87347,19.832953 a 4.4775524,4.4775524 0 0 1 -4.122925,-4.804628 4.4775524,4.4775524 0 0 1 4.803189,-4.124602 4.4775524,4.4775524 0 0 1 4.126278,4.801748 4.4775524,4.4775524 0 0 1 -4.800308,4.127954"
     sodipodi:open="true"
     sodipodi:end="1.6457861"
     sodipodi:start="1.6471824"
     sodipodi:ry="4.4775524"
     sodipodi:rx="4.4775524"
     sodipodi:cy="15.368457"
     sodipodi:cx="47.21516"
     sodipodi:type="arc"
     id="path1013"
     style="opacity:1;fill:none;fill-opacity:1;fill-rule:nonzero;stroke:#000000;stroke-width:0.01583054;stroke-linecap:round;stroke-linejoin:round;stroke-miterlimit:4;stroke-dasharray:none;stroke-opacity:1;paint-order:markers fill stroke" />
  <path
     style="opacity:1;fill:#000000;fill-opacity:1;fill-rule:nonzero;stroke:#000000;stroke-width:0.02202103;stroke-linecap:round;stroke-linejoin:round;stroke-miterlimit:4;stroke-dasharray:none;stroke-opacity:1;paint-order:markers fill stroke"
     d="M 6.0761053,0.94909671 6.5082195,3.7671668 A 6.228489,6.228489 0 0 0 4.0833478,5.7121451 L 1.4255951,4.6762526 0.21559928,7.7839042 2.8745825,8.8196084 A 6.228489,6.228489 0 0 0 2.8560535,9.9144641 6.228489,6.228489 0 0 0 3.3476519,11.888342 L 1.1188878,13.674777 3.2044337,16.277101 5.4276111,14.4953 a 6.228489,6.228489 0 0 0 2.8986958,1.128679 l 0.4319257,2.81684 3.2967734,-0.505516 -0.432679,-2.821762 a 6.228489,6.228489 0 0 0 2.424206,-1.941098 l 2.657565,1.034661 1.211226,-3.10784 -2.657563,-1.034662 A 6.228489,6.228489 0 0 0 15.276391,8.962175 6.228489,6.228489 0 0 0 14.785548,6.9932182 L 17.012035,5.2083905 14.925259,2.6062557 12.705396,4.3850286 A 6.228489,6.228489 0 0 0 9.8044265,3.257958 L 9.3728775,0.44357974 Z M 8.6480686,6.6168488 A 2.8541279,2.8541279 0 0 1 8.8487463,6.5948904 2.8541279,2.8541279 0 0 1 11.911587,9.2211751 2.8541279,2.8541279 0 0 1 9.2856777,12.286473 l -0.00394,-6.96e-4 A 2.8541279,2.8541279 0 0 1 6.2200012,9.6581107 2.8541279,2.8541279 0 0 1 8.6480686,6.6168488 Z"
     id="path1015"
     inkscape:connector-curvature="0" />
  <path
     inkscape:connector-curvature="0"
     id="path1020"
     d="m 19.796785,10.880023 -0.157121,2.987213 a 6.5350744,6.5350744 0 0 0 -2.905939,1.480931 l -2.509419,-1.631038 -1.905851,2.934475 2.510723,1.631108 a 6.5350744,6.5350744 0 0 0 -0.252547,1.120811 6.5350744,6.5350744 0 0 0 0.08404,2.132648 l -2.67066,1.359883 1.587491,3.118219 2.663933,-1.356314 a 6.5350744,6.5350744 0 0 0 2.737154,1.777748 l -0.157054,2.985909 3.494648,0.183812 0.157328,-2.991126 a 6.5350744,6.5350744 0 0 0 2.904428,-1.477086 l 2.509488,1.629732 1.907156,-2.934406 -2.509487,-1.629733 a 6.5350744,6.5350744 0 0 0 0.254263,-1.12857 6.5350744,6.5350744 0 0 0 -0.08432,-2.127431 l 2.667982,-1.358717 -1.588795,-3.118286 -2.659881,1.353909 a 6.5350744,6.5350744 0 0 0 -2.739833,-1.776579 l 0.156916,-2.9833 z m 1.4334,6.371129 a 2.9946169,2.9946169 0 0 1 0.210842,0.02025 2.9946169,2.9946169 0 0 1 2.58637,3.351273 2.9946169,2.9946169 0 0 1 -3.351407,2.588978 l -0.0038,-0.0016 a 2.9946169,2.9946169 0 0 1 -2.585001,-3.352471 2.9946169,2.9946169 0 0 1 3.143039,-2.60648 z"
     style="opacity:1;fill:#005200;fill-opacity:1;fill-rule:nonzero;stroke:#000000;stroke-width:0.02310498;stroke-linecap:round;stroke-linejoin:round;stroke-miterlimit:4;stroke-dasharray:none;stroke-opacity:1;paint-order:markers fill stroke" />
</svg>
